mtllib volvo_vm270_chassis.mtl
# Volvo VM 270 3-Axle Chassis 3D Model (Highly Detailed & Improved Cabin)
v -4.5000 -0.1250 -0.4600
v 4.5000 -0.1250 -0.4600
v 4.5000 0.1250 -0.4600
v -4.5000 0.1250 -0.4600
v -4.5000 -0.1250 -0.3800
v 4.5000 -0.1250 -0.3800
v 4.5000 0.1250 -0.3800
v -4.5000 0.1250 -0.3800
v -4.5000 -0.1250 0.3800
v 4.5000 -0.1250 0.3800
v 4.5000 0.1250 0.3800
v -4.5000 0.1250 0.3800
v -4.5000 -0.1250 0.4600
v 4.5000 -0.1250 0.4600
v 4.5000 0.1250 0.4600
v -4.5000 0.1250 0.4600
v -4.0500 -0.1000 -0.3800
v -3.9500 -0.1000 -0.3800
v -3.9500 0.1000 -0.3800
v -4.0500 0.1000 -0.3800
v -4.0500 -0.1000 0.3800
v -3.9500 -0.1000 0.3800
v -3.9500 0.1000 0.3800
v -4.0500 0.1000 0.3800
v -2.5500 -0.1000 -0.3800
v -2.4500 -0.1000 -0.3800
v -2.4500 0.1000 -0.3800
v -2.5500 0.1000 -0.3800
v -2.5500 -0.1000 0.3800
v -2.4500 -0.1000 0.3800
v -2.4500 0.1000 0.3800
v -2.5500 0.1000 0.3800
v -1.0500 -0.1000 -0.3800
v -0.9500 -0.1000 -0.3800
v -0.9500 0.1000 -0.3800
v -1.0500 0.1000 -0.3800
v -1.0500 -0.1000 0.3800
v -0.9500 -0.1000 0.3800
v -0.9500 0.1000 0.3800
v -1.0500 0.1000 0.3800
v 0.4500 -0.1000 -0.3800
v 0.5500 -0.1000 -0.3800
v 0.5500 0.1000 -0.3800
v 0.4500 0.1000 -0.3800
v 0.4500 -0.1000 0.3800
v 0.5500 -0.1000 0.3800
v 0.5500 0.1000 0.3800
v 0.4500 0.1000 0.3800
v 1.9500 -0.1000 -0.3800
v 2.0500 -0.1000 -0.3800
v 2.0500 0.1000 -0.3800
v 1.9500 0.1000 -0.3800
v 1.9500 -0.1000 0.3800
v 2.0500 -0.1000 0.3800
v 2.0500 0.1000 0.3800
v 1.9500 0.1000 0.3800
v 3.4500 -0.1000 -0.3800
v 3.5500 -0.1000 -0.3800
v 3.5500 0.1000 -0.3800
v 3.4500 0.1000 -0.3800
v 3.4500 -0.1000 0.3800
v 3.5500 -0.1000 0.3800
v 3.5500 0.1000 0.3800
v 3.4500 0.1000 0.3800
v 4.3500 -0.1000 -0.3800
v 4.4500 -0.1000 -0.3800
v 4.4500 0.1000 -0.3800
v 4.3500 0.1000 -0.3800
v 4.3500 -0.1000 0.3800
v 4.4500 -0.1000 0.3800
v 4.4500 0.1000 0.3800
v 4.3500 0.1000 0.3800
v 4.4750 -0.1500 -0.4500
v 4.5250 -0.1500 -0.4500
v 4.5250 0.1500 -0.4500
v 4.4750 0.1500 -0.4500
v 4.4750 -0.1500 0.4500
v 4.5250 -0.1500 0.4500
v 4.5250 0.1500 0.4500
v 4.4750 0.1500 0.4500
v 1.8850 -0.0150 -0.3800
v 1.9150 -0.0150 -0.3800
v 1.9150 0.0150 -0.3800
v 1.8850 0.0150 -0.3800
v 1.8850 -0.0150 0.3800
v 1.9150 -0.0150 0.3800
v 1.9150 0.0150 0.3800
v 1.8850 0.0150 0.3800
v 2.8550 -0.1150 -0.3800
v 2.8850 -0.1150 -0.3800
v 2.8850 -0.0850 -0.3800
v 2.8550 -0.0850 -0.3800
v 2.8550 -0.1150 0.3800
v 2.8850 -0.1150 0.3800
v 2.8850 -0.0850 0.3800
v 2.8550 -0.0850 0.3800
v -3.0500 -0.2250 -0.2750
v -1.9500 -0.2250 -0.2750
v -1.9500 0.4250 -0.2750
v -3.0500 0.4250 -0.2750
v -3.0500 -0.2250 0.2750
v -1.9500 -0.2250 0.2750
v -1.9500 0.4250 0.2750
v -3.0500 0.4250 0.2750
v -2.0000 -0.3250 -0.2250
v -1.4000 -0.3250 -0.2250
v -1.4000 0.1250 -0.2250
v -2.0000 0.1250 -0.2250
v -2.0000 -0.3250 0.2250
v -1.4000 -0.3250 0.2250
v -1.4000 0.1250 0.2250
v -2.0000 0.1250 0.2250
v -3.1400 -0.3500 -0.4500
v -3.1480 -0.3200 -0.4500
v -3.1700 -0.2980 -0.4500
v -3.2000 -0.2900 -0.4500
v -3.2300 -0.2980 -0.4500
v -3.2520 -0.3200 -0.4500
v -3.2600 -0.3500 -0.4500
v -3.2520 -0.3800 -0.4500
v -3.2300 -0.4020 -0.4500
v -3.2000 -0.4100 -0.4500
v -3.1700 -0.4020 -0.4500
v -3.1480 -0.3800 -0.4500
v -3.1400 -0.3500 0.4500
v -3.1480 -0.3200 0.4500
v -3.1700 -0.2980 0.4500
v -3.2000 -0.2900 0.4500
v -3.2300 -0.2980 0.4500
v -3.2520 -0.3200 0.4500
v -3.2600 -0.3500 0.4500
v -3.2520 -0.3800 0.4500
v -3.2300 -0.4020 0.4500
v -3.2000 -0.4100 0.4500
v -3.1700 -0.4020 0.4500
v -3.1480 -0.3800 0.4500
v -3.2000 -0.3500 -0.4500
v -3.2000 -0.3500 0.4500
v 2.2800 -0.3500 -0.4500
v 2.2693 -0.3100 -0.4500
v 2.2400 -0.2807 -0.4500
v 2.2000 -0.2700 -0.4500
v 2.1600 -0.2807 -0.4500
v 2.1307 -0.3100 -0.4500
v 2.1200 -0.3500 -0.4500
v 2.1307 -0.3900 -0.4500
v 2.1600 -0.4193 -0.4500
v 2.2000 -0.4300 -0.4500
v 2.2400 -0.4193 -0.4500
v 2.2693 -0.3900 -0.4500
v 2.2800 -0.3500 0.4500
v 2.2693 -0.3100 0.4500
v 2.2400 -0.2807 0.4500
v 2.2000 -0.2700 0.4500
v 2.1600 -0.2807 0.4500
v 2.1307 -0.3100 0.4500
v 2.1200 -0.3500 0.4500
v 2.1307 -0.3900 0.4500
v 2.1600 -0.4193 0.4500
v 2.2000 -0.4300 0.4500
v 2.2400 -0.4193 0.4500
v 2.2693 -0.3900 0.4500
v 2.2000 -0.3500 -0.4500
v 2.2000 -0.3500 0.4500
v 3.6300 -0.3500 -0.4500
v 3.6193 -0.3100 -0.4500
v 3.5900 -0.2807 -0.4500
v 3.5500 -0.2700 -0.4500
v 3.5100 -0.2807 -0.4500
v 3.4807 -0.3100 -0.4500
v 3.4700 -0.3500 -0.4500
v 3.4807 -0.3900 -0.4500
v 3.5100 -0.4193 -0.4500
v 3.5500 -0.4300 -0.4500
v 3.5900 -0.4193 -0.4500
v 3.6193 -0.3900 -0.4500
v 3.6300 -0.3500 0.4500
v 3.6193 -0.3100 0.4500
v 3.5900 -0.2807 0.4500
v 3.5500 -0.2700 0.4500
v 3.5100 -0.2807 0.4500
v 3.4807 -0.3100 0.4500
v 3.4700 -0.3500 0.4500
v 3.4807 -0.3900 0.4500
v 3.5100 -0.4193 0.4500
v 3.5500 -0.4300 0.4500
v 3.5900 -0.4193 0.4500
v 3.6193 -0.3900 0.4500
v 3.5500 -0.3500 -0.4500
v 3.5500 -0.3500 0.4500
v -3.7500 -0.1800 -0.4900
v -2.6500 -0.1800 -0.4900
v -2.6500 -0.1200 -0.4900
v -3.7500 -0.1200 -0.4900
v -3.7500 -0.1800 -0.4100
v -2.6500 -0.1800 -0.4100
v -2.6500 -0.1200 -0.4100
v -3.7500 -0.1200 -0.4100
v -3.7500 -0.1800 0.4100
v -2.6500 -0.1800 0.4100
v -2.6500 -0.1200 0.4100
v -3.7500 -0.1200 0.4100
v -3.7500 -0.1800 0.4900
v -2.6500 -0.1800 0.4900
v -2.6500 -0.1200 0.4900
v -3.7500 -0.1200 0.4900
v 2.0700 -0.1900 -0.5000
v 3.6700 -0.1900 -0.5000
v 3.6700 -0.1100 -0.5000
v 2.0700 -0.1100 -0.5000
v 2.0700 -0.1900 -0.4000
v 3.6700 -0.1900 -0.4000
v 3.6700 -0.1100 -0.4000
v 2.0700 -0.1100 -0.4000
v 2.0700 -0.1900 0.4000
v 3.6700 -0.1900 0.4000
v 3.6700 -0.1100 0.4000
v 2.0700 -0.1100 0.4000
v 2.0700 -0.1900 0.5000
v 3.6700 -0.1900 0.5000
v 3.6700 -0.1100 0.5000
v 2.0700 -0.1100 0.5000
v -1.4000 -0.2100 0.0000
v -1.4000 -0.2154 0.0200
v -1.4000 -0.2300 0.0346
v -1.4000 -0.2500 0.0400
v -1.4000 -0.2700 0.0346
v -1.4000 -0.2846 0.0200
v -1.4000 -0.2900 0.0000
v -1.4000 -0.2846 -0.0200
v -1.4000 -0.2700 -0.0346
v -1.4000 -0.2500 -0.0400
v -1.4000 -0.2300 -0.0346
v -1.4000 -0.2154 -0.0200
v 1.9000 -0.2100 0.0000
v 1.9000 -0.2154 0.0200
v 1.9000 -0.2300 0.0346
v 1.9000 -0.2500 0.0400
v 1.9000 -0.2700 0.0346
v 1.9000 -0.2846 0.0200
v 1.9000 -0.2900 0.0000
v 1.9000 -0.2846 -0.0200
v 1.9000 -0.2700 -0.0346
v 1.9000 -0.2500 -0.0400
v 1.9000 -0.2300 -0.0346
v 1.9000 -0.2154 -0.0200
v -1.4000 -0.2500 0.0000
v 1.9000 -0.2500 0.0000
v 2.2450 -0.2650 0.0000
v 2.2450 -0.2697 0.0175
v 2.2450 -0.2825 0.0303
v 2.2450 -0.3000 0.0350
v 2.2450 -0.3175 0.0303
v 2.2450 -0.3303 0.0175
v 2.2450 -0.3350 0.0000
v 2.2450 -0.3303 -0.0175
v 2.2450 -0.3175 -0.0303
v 2.2450 -0.3000 -0.0350
v 2.2450 -0.2825 -0.0303
v 2.2450 -0.2697 -0.0175
v 3.4950 -0.2650 0.0000
v 3.4950 -0.2697 0.0175
v 3.4950 -0.2825 0.0303
v 3.4950 -0.3000 0.0350
v 3.4950 -0.3175 0.0303
v 3.4950 -0.3303 0.0175
v 3.4950 -0.3350 0.0000
v 3.4950 -0.3303 -0.0175
v 3.4950 -0.3175 -0.0303
v 3.4950 -0.3000 -0.0350
v 3.4950 -0.2825 -0.0303
v 3.4950 -0.2697 -0.0175
v 2.2450 -0.3000 0.0000
v 3.4950 -0.3000 0.0000
v 2.0250 -0.5250 -0.1750
v 2.3750 -0.5250 -0.1750
v 2.3750 -0.1750 -0.1750
v 2.0250 -0.1750 -0.1750
v 2.0250 -0.5250 0.1750
v 2.3750 -0.5250 0.1750
v 2.3750 -0.1750 0.1750
v 2.0250 -0.1750 0.1750
v 3.3750 -0.5250 -0.1750
v 3.7250 -0.5250 -0.1750
v 3.7250 -0.1750 -0.1750
v 3.3750 -0.1750 -0.1750
v 3.3750 -0.5250 0.1750
v 3.7250 -0.5250 0.1750
v 3.7250 -0.1750 0.1750
v 3.3750 -0.1750 0.1750
v -2.6800 -0.3500 -1.0900
v -2.7497 -0.0900 -1.0900
v -2.9400 0.1003 -1.0900
v -3.2000 0.1700 -1.0900
v -3.4600 0.1003 -1.0900
v -3.6503 -0.0900 -1.0900
v -3.7200 -0.3500 -1.0900
v -3.6503 -0.6100 -1.0900
v -3.4600 -0.8003 -1.0900
v -3.2000 -0.8700 -1.0900
v -2.9400 -0.8003 -1.0900
v -2.7497 -0.6100 -1.0900
v -2.6800 -0.3500 -0.8100
v -2.7497 -0.0900 -0.8100
v -2.9400 0.1003 -0.8100
v -3.2000 0.1700 -0.8100
v -3.4600 0.1003 -0.8100
v -3.6503 -0.0900 -0.8100
v -3.7200 -0.3500 -0.8100
v -3.6503 -0.6100 -0.8100
v -3.4600 -0.8003 -0.8100
v -3.2000 -0.8700 -0.8100
v -2.9400 -0.8003 -0.8100
v -2.7497 -0.6100 -0.8100
v -3.2000 -0.3500 -1.0900
v -3.2000 -0.3500 -0.8100
v -2.6800 -0.3500 0.8100
v -2.7497 -0.0900 0.8100
v -2.9400 0.1003 0.8100
v -3.2000 0.1700 0.8100
v -3.4600 0.1003 0.8100
v -3.6503 -0.0900 0.8100
v -3.7200 -0.3500 0.8100
v -3.6503 -0.6100 0.8100
v -3.4600 -0.8003 0.8100
v -3.2000 -0.8700 0.8100
v -2.9400 -0.8003 0.8100
v -2.7497 -0.6100 0.8100
v -2.6800 -0.3500 1.0900
v -2.7497 -0.0900 1.0900
v -2.9400 0.1003 1.0900
v -3.2000 0.1700 1.0900
v -3.4600 0.1003 1.0900
v -3.6503 -0.0900 1.0900
v -3.7200 -0.3500 1.0900
v -3.6503 -0.6100 1.0900
v -3.4600 -0.8003 1.0900
v -3.2000 -0.8700 1.0900
v -2.9400 -0.8003 1.0900
v -2.7497 -0.6100 1.0900
v -3.2000 -0.3500 0.8100
v -3.2000 -0.3500 1.0900
v 2.7200 -0.3500 -1.2200
v 2.6503 -0.0900 -1.2200
v 2.4600 0.1003 -1.2200
v 2.2000 0.1700 -1.2200
v 1.9400 0.1003 -1.2200
v 1.7497 -0.0900 -1.2200
v 1.6800 -0.3500 -1.2200
v 1.7497 -0.6100 -1.2200
v 1.9400 -0.8003 -1.2200
v 2.2000 -0.8700 -1.2200
v 2.4600 -0.8003 -1.2200
v 2.6503 -0.6100 -1.2200
v 2.7200 -0.3500 -0.9800
v 2.6503 -0.0900 -0.9800
v 2.4600 0.1003 -0.9800
v 2.2000 0.1700 -0.9800
v 1.9400 0.1003 -0.9800
v 1.7497 -0.0900 -0.9800
v 1.6800 -0.3500 -0.9800
v 1.7497 -0.6100 -0.9800
v 1.9400 -0.8003 -0.9800
v 2.2000 -0.8700 -0.9800
v 2.4600 -0.8003 -0.9800
v 2.6503 -0.6100 -0.9800
v 2.2000 -0.3500 -1.2200
v 2.2000 -0.3500 -0.9800
v 2.7200 -0.3500 -0.9400
v 2.6503 -0.0900 -0.9400
v 2.4600 0.1003 -0.9400
v 2.2000 0.1700 -0.9400
v 1.9400 0.1003 -0.9400
v 1.7497 -0.0900 -0.9400
v 1.6800 -0.3500 -0.9400
v 1.7497 -0.6100 -0.9400
v 1.9400 -0.8003 -0.9400
v 2.2000 -0.8700 -0.9400
v 2.4600 -0.8003 -0.9400
v 2.6503 -0.6100 -0.9400
v 2.7200 -0.3500 -0.7000
v 2.6503 -0.0900 -0.7000
v 2.4600 0.1003 -0.7000
v 2.2000 0.1700 -0.7000
v 1.9400 0.1003 -0.7000
v 1.7497 -0.0900 -0.7000
v 1.6800 -0.3500 -0.7000
v 1.7497 -0.6100 -0.7000
v 1.9400 -0.8003 -0.7000
v 2.2000 -0.8700 -0.7000
v 2.4600 -0.8003 -0.7000
v 2.6503 -0.6100 -0.7000
v 2.2000 -0.3500 -0.9400
v 2.2000 -0.3500 -0.7000
v 2.7200 -0.3500 0.7000
v 2.6503 -0.0900 0.7000
v 2.4600 0.1003 0.7000
v 2.2000 0.1700 0.7000
v 1.9400 0.1003 0.7000
v 1.7497 -0.0900 0.7000
v 1.6800 -0.3500 0.7000
v 1.7497 -0.6100 0.7000
v 1.9400 -0.8003 0.7000
v 2.2000 -0.8700 0.7000
v 2.4600 -0.8003 0.7000
v 2.6503 -0.6100 0.7000
v 2.7200 -0.3500 0.9400
v 2.6503 -0.0900 0.9400
v 2.4600 0.1003 0.9400
v 2.2000 0.1700 0.9400
v 1.9400 0.1003 0.9400
v 1.7497 -0.0900 0.9400
v 1.6800 -0.3500 0.9400
v 1.7497 -0.6100 0.9400
v 1.9400 -0.8003 0.9400
v 2.2000 -0.8700 0.9400
v 2.4600 -0.8003 0.9400
v 2.6503 -0.6100 0.9400
v 2.2000 -0.3500 0.7000
v 2.2000 -0.3500 0.9400
v 2.7200 -0.3500 0.9800
v 2.6503 -0.0900 0.9800
v 2.4600 0.1003 0.9800
v 2.2000 0.1700 0.9800
v 1.9400 0.1003 0.9800
v 1.7497 -0.0900 0.9800
v 1.6800 -0.3500 0.9800
v 1.7497 -0.6100 0.9800
v 1.9400 -0.8003 0.9800
v 2.2000 -0.8700 0.9800
v 2.4600 -0.8003 0.9800
v 2.6503 -0.6100 0.9800
v 2.7200 -0.3500 1.2200
v 2.6503 -0.0900 1.2200
v 2.4600 0.1003 1.2200
v 2.2000 0.1700 1.2200
v 1.9400 0.1003 1.2200
v 1.7497 -0.0900 1.2200
v 1.6800 -0.3500 1.2200
v 1.7497 -0.6100 1.2200
v 1.9400 -0.8003 1.2200
v 2.2000 -0.8700 1.2200
v 2.4600 -0.8003 1.2200
v 2.6503 -0.6100 1.2200
v 2.2000 -0.3500 0.9800
v 2.2000 -0.3500 1.2200
v 4.0700 -0.3500 -1.2200
v 4.0003 -0.0900 -1.2200
v 3.8100 0.1003 -1.2200
v 3.5500 0.1700 -1.2200
v 3.2900 0.1003 -1.2200
v 3.0997 -0.0900 -1.2200
v 3.0300 -0.3500 -1.2200
v 3.0997 -0.6100 -1.2200
v 3.2900 -0.8003 -1.2200
v 3.5500 -0.8700 -1.2200
v 3.8100 -0.8003 -1.2200
v 4.0003 -0.6100 -1.2200
v 4.0700 -0.3500 -0.9800
v 4.0003 -0.0900 -0.9800
v 3.8100 0.1003 -0.9800
v 3.5500 0.1700 -0.9800
v 3.2900 0.1003 -0.9800
v 3.0997 -0.0900 -0.9800
v 3.0300 -0.3500 -0.9800
v 3.0997 -0.6100 -0.9800
v 3.2900 -0.8003 -0.9800
v 3.5500 -0.8700 -0.9800
v 3.8100 -0.8003 -0.9800
v 4.0003 -0.6100 -0.9800
v 3.5500 -0.3500 -1.2200
v 3.5500 -0.3500 -0.9800
v 4.0700 -0.3500 -0.9400
v 4.0003 -0.0900 -0.9400
v 3.8100 0.1003 -0.9400
v 3.5500 0.1700 -0.9400
v 3.2900 0.1003 -0.9400
v 3.0997 -0.0900 -0.9400
v 3.0300 -0.3500 -0.9400
v 3.0997 -0.6100 -0.9400
v 3.2900 -0.8003 -0.9400
v 3.5500 -0.8700 -0.9400
v 3.8100 -0.8003 -0.9400
v 4.0003 -0.6100 -0.9400
v 4.0700 -0.3500 -0.7000
v 4.0003 -0.0900 -0.7000
v 3.8100 0.1003 -0.7000
v 3.5500 0.1700 -0.7000
v 3.2900 0.1003 -0.7000
v 3.0997 -0.0900 -0.7000
v 3.0300 -0.3500 -0.7000
v 3.0997 -0.6100 -0.7000
v 3.2900 -0.8003 -0.7000
v 3.5500 -0.8700 -0.7000
v 3.8100 -0.8003 -0.7000
v 4.0003 -0.6100 -0.7000
v 3.5500 -0.3500 -0.9400
v 3.5500 -0.3500 -0.7000
v 4.0700 -0.3500 0.7000
v 4.0003 -0.0900 0.7000
v 3.8100 0.1003 0.7000
v 3.5500 0.1700 0.7000
v 3.2900 0.1003 0.7000
v 3.0997 -0.0900 0.7000
v 3.0300 -0.3500 0.7000
v 3.0997 -0.6100 0.7000
v 3.2900 -0.8003 0.7000
v 3.5500 -0.8700 0.7000
v 3.8100 -0.8003 0.7000
v 4.0003 -0.6100 0.7000
v 4.0700 -0.3500 0.9400
v 4.0003 -0.0900 0.9400
v 3.8100 0.1003 0.9400
v 3.5500 0.1700 0.9400
v 3.2900 0.1003 0.9400
v 3.0997 -0.0900 0.9400
v 3.0300 -0.3500 0.9400
v 3.0997 -0.6100 0.9400
v 3.2900 -0.8003 0.9400
v 3.5500 -0.8700 0.9400
v 3.8100 -0.8003 0.9400
v 4.0003 -0.6100 0.9400
v 3.5500 -0.3500 0.7000
v 3.5500 -0.3500 0.9400
v 4.0700 -0.3500 0.9800
v 4.0003 -0.0900 0.9800
v 3.8100 0.1003 0.9800
v 3.5500 0.1700 0.9800
v 3.2900 0.1003 0.9800
v 3.0997 -0.0900 0.9800
v 3.0300 -0.3500 0.9800
v 3.0997 -0.6100 0.9800
v 3.2900 -0.8003 0.9800
v 3.5500 -0.8700 0.9800
v 3.8100 -0.8003 0.9800
v 4.0003 -0.6100 0.9800
v 4.0700 -0.3500 1.2200
v 4.0003 -0.0900 1.2200
v 3.8100 0.1003 1.2200
v 3.5500 0.1700 1.2200
v 3.2900 0.1003 1.2200
v 3.0997 -0.0900 1.2200
v 3.0300 -0.3500 1.2200
v 3.0997 -0.6100 1.2200
v 3.2900 -0.8003 1.2200
v 3.5500 -0.8700 1.2200
v 3.8100 -0.8003 1.2200
v 4.0003 -0.6100 1.2200
v 3.5500 -0.3500 0.9800
v 3.5500 -0.3500 1.2200
v 1.8700 0.1950 -1.2350
v 3.8700 0.1950 -1.2350
v 3.8700 0.2450 -1.2350
v 1.8700 0.2450 -1.2350
v 1.8700 0.1950 -0.6850
v 3.8700 0.1950 -0.6850
v 3.8700 0.2450 -0.6850
v 1.8700 0.2450 -0.6850
v 1.8700 0.1950 0.6850
v 3.8700 0.1950 0.6850
v 3.8700 0.2450 0.6850
v 1.8700 0.2450 0.6850
v 1.8700 0.1950 1.2350
v 3.8700 0.1950 1.2350
v 3.8700 0.2450 1.2350
v 1.8700 0.2450 1.2350
v -4.2000 -0.2500 -1.0300
v -2.8000 -0.2500 -1.0300
v -2.8000 1.3500 -1.0300
v -4.2000 1.3500 -1.0300
v -4.2000 -0.2500 1.0300
v -2.8000 -0.2500 1.0300
v -2.8000 1.3500 1.0300
v -4.2000 1.3500 1.0300
v -3.7000 1.3500 -0.9000
v -2.9000 1.3500 -0.9000
v -2.9000 1.5500 -0.9000
v -3.7000 1.5500 -0.9000
v -3.7000 1.3500 0.9000
v -2.9000 1.3500 0.9000
v -2.9000 1.5500 0.9000
v -3.7000 1.5500 0.9000
v -4.3500 -0.3750 -1.0750
v -4.1500 -0.3750 -1.0750
v -4.1500 -0.0250 -1.0750
v -4.3500 -0.0250 -1.0750
v -4.3500 -0.3750 1.0750
v -4.1500 -0.3750 1.0750
v -4.1500 -0.0250 1.0750
v -4.3500 -0.0250 1.0750
v -3.8000 -0.1800 -1.0650
v -2.7000 -0.1800 -1.0650
v -2.7000 -0.0600 -1.0650
v -3.8000 -0.0600 -1.0650
v -3.8000 -0.1800 -1.0150
v -2.7000 -0.1800 -1.0150
v -2.7000 -0.0600 -1.0150
v -3.8000 -0.0600 -1.0150
v -3.8000 -0.1800 1.0150
v -2.7000 -0.1800 1.0150
v -2.7000 -0.0600 1.0150
v -3.8000 -0.0600 1.0150
v -3.8000 -0.1800 1.0650
v -2.7000 -0.1800 1.0650
v -2.7000 -0.0600 1.0650
v -3.8000 -0.0600 1.0650
v -4.2150 -0.0750 -0.5000
v -4.2050 -0.0750 -0.5000
v -4.2050 0.2750 -0.5000
v -4.2150 0.2750 -0.5000
v -4.2150 -0.0750 0.5000
v -4.2050 -0.0750 0.5000
v -4.2050 0.2750 0.5000
v -4.2150 0.2750 0.5000
v -4.2000 1.2100 -0.9750
v -4.0000 1.2100 -0.9750
v -4.0000 1.2900 -0.9750
v -4.2000 1.2900 -0.9750
v -4.2000 1.2100 0.9750
v -4.0000 1.2100 0.9750
v -4.0000 1.2900 0.9750
v -4.2000 1.2900 0.9750
v -4.3700 -0.2600 -0.9750
v -4.3500 -0.2600 -0.9750
v -4.3500 -0.1400 -0.9750
v -4.3700 -0.1400 -0.9750
v -4.3700 -0.2600 -0.7250
v -4.3500 -0.2600 -0.7250
v -4.3500 -0.1400 -0.7250
v -4.3700 -0.1400 -0.7250
v -4.3700 -0.2600 0.7250
v -4.3500 -0.2600 0.7250
v -4.3500 -0.1400 0.7250
v -4.3700 -0.1400 0.7250
v -4.3700 -0.2600 0.9750
v -4.3500 -0.2600 0.9750
v -4.3500 -0.1400 0.9750
v -4.3700 -0.1400 0.9750
v -3.9500 0.6500 -1.1900
v -3.8500 0.6500 -1.1900
v -3.8500 0.9500 -1.1900
v -3.9500 0.9500 -1.1900
v -3.9500 0.6500 -1.1100
v -3.8500 0.6500 -1.1100
v -3.8500 0.9500 -1.1100
v -3.9500 0.9500 -1.1100
v -3.9500 0.6500 1.1100
v -3.8500 0.6500 1.1100
v -3.8500 0.9500 1.1100
v -3.9500 0.9500 1.1100
v -3.9500 0.6500 1.1900
v -3.8500 0.6500 1.1900
v -3.8500 0.9500 1.1900
v -3.9500 0.9500 1.1900
v -4.2150 0.3500 -0.9500
v -4.2050 0.3500 -0.9500
v -4.2050 1.0500 -0.9500
v -4.2150 1.0500 -0.9500
v -4.2150 0.3500 0.9500
v -4.2050 0.3500 0.9500
v -4.2050 1.0500 0.9500
v -4.2150 1.0500 0.9500
v -3.8500 0.4500 -1.0450
v -3.1500 0.4500 -1.0450
v -3.1500 0.9500 -1.0450
v -3.8500 0.9500 -1.0450
v -3.8500 0.4500 -1.0350
v -3.1500 0.4500 -1.0350
v -3.1500 0.9500 -1.0350
v -3.8500 0.9500 -1.0350
v -3.8500 0.4500 1.0350
v -3.1500 0.4500 1.0350
v -3.1500 0.9500 1.0350
v -3.8500 0.9500 1.0350
v -3.8500 0.4500 1.0450
v -3.1500 0.4500 1.0450
v -3.1500 0.9500 1.0450
v -3.8500 0.9500 1.0450
v -1.7500 -0.3500 0.4750
v -0.2500 -0.3500 0.4750
v -0.2500 0.1500 0.4750
v -1.7500 0.1500 0.4750
v -1.7500 -0.3500 1.0250
v -0.2500 -0.3500 1.0250
v -0.2500 0.1500 1.0250
v -1.7500 0.1500 1.0250
v -1.1250 -0.3000 -0.9500
v -0.6750 -0.3000 -0.9500
v -0.6750 0.1000 -0.9500
v -1.1250 0.1000 -0.9500
v -1.1250 -0.3000 -0.5500
v -0.6750 -0.3000 -0.5500
v -0.6750 0.1000 -0.5500
v -1.1250 0.1000 -0.5500
v -1.9500 -0.3500 -1.0250
v -1.2500 -0.3500 -1.0250
v -1.2500 0.1500 -1.0250
v -1.9500 0.1500 -1.0250
v -1.9500 -0.3500 -0.4750
v -1.2500 -0.3500 -0.4750
v -1.2500 0.1500 -0.4750
v -1.9500 0.1500 -0.4750
v -0.6000 0.0800 -0.7500
v -0.6000 0.0559 -0.6600
v -0.6000 -0.0100 -0.5941
v -0.6000 -0.1000 -0.5700
v -0.6000 -0.1900 -0.5941
v -0.6000 -0.2559 -0.6600
v -0.6000 -0.2800 -0.7500
v -0.6000 -0.2559 -0.8400
v -0.6000 -0.1900 -0.9059
v -0.6000 -0.1000 -0.9300
v -0.6000 -0.0100 -0.9059
v -0.6000 0.0559 -0.8400
v 0.1000 0.0800 -0.7500
v 0.1000 0.0559 -0.6600
v 0.1000 -0.0100 -0.5941
v 0.1000 -0.1000 -0.5700
v 0.1000 -0.1900 -0.5941
v 0.1000 -0.2559 -0.6600
v 0.1000 -0.2800 -0.7500
v 0.1000 -0.2559 -0.8400
v 0.1000 -0.1900 -0.9059
v 0.1000 -0.1000 -0.9300
v 0.1000 -0.0100 -0.9059
v 0.1000 0.0559 -0.8400
v -0.6000 -0.1000 -0.7500
v 0.1000 -0.1000 -0.7500
v -0.6000 -0.2200 -0.7500
v -0.6000 -0.2441 -0.6600
v -0.6000 -0.3100 -0.5941
v -0.6000 -0.4000 -0.5700
v -0.6000 -0.4900 -0.5941
v -0.6000 -0.5559 -0.6600
v -0.6000 -0.5800 -0.7500
v -0.6000 -0.5559 -0.8400
v -0.6000 -0.4900 -0.9059
v -0.6000 -0.4000 -0.9300
v -0.6000 -0.3100 -0.9059
v -0.6000 -0.2441 -0.8400
v 0.1000 -0.2200 -0.7500
v 0.1000 -0.2441 -0.6600
v 0.1000 -0.3100 -0.5941
v 0.1000 -0.4000 -0.5700
v 0.1000 -0.4900 -0.5941
v 0.1000 -0.5559 -0.6600
v 0.1000 -0.5800 -0.7500
v 0.1000 -0.5559 -0.8400
v 0.1000 -0.4900 -0.9059
v 0.1000 -0.4000 -0.9300
v 0.1000 -0.3100 -0.9059
v 0.1000 -0.2441 -0.8400
v -0.6000 -0.4000 -0.7500
v 0.1000 -0.4000 -0.7500
v -1.3000 -0.1000 0.0000
v -1.3000 -0.1201 0.0750
v -1.3000 -0.1750 0.1299
v -1.3000 -0.2500 0.1500
v -1.3000 -0.3250 0.1299
v -1.3000 -0.3799 0.0750
v -1.3000 -0.4000 0.0000
v -1.3000 -0.3799 -0.0750
v -1.3000 -0.3250 -0.1299
v -1.3000 -0.2500 -0.1500
v -1.3000 -0.1750 -0.1299
v -1.3000 -0.1201 -0.0750
v -0.5000 -0.1000 0.0000
v -0.5000 -0.1201 0.0750
v -0.5000 -0.1750 0.1299
v -0.5000 -0.2500 0.1500
v -0.5000 -0.3250 0.1299
v -0.5000 -0.3799 0.0750
v -0.5000 -0.4000 0.0000
v -0.5000 -0.3799 -0.0750
v -0.5000 -0.3250 -0.1299
v -0.5000 -0.2500 -0.1500
v -0.5000 -0.1750 -0.1299
v -0.5000 -0.1201 -0.0750
v -1.3000 -0.2500 0.0000
v -0.5000 -0.2500 0.0000
v -0.4500 -0.2500 0.0000
v -0.4567 -0.2250 0.0000
v -0.4750 -0.2067 0.0000
v -0.5000 -0.2000 0.0000
v -0.5250 -0.2067 0.0000
v -0.5433 -0.2250 0.0000
v -0.5500 -0.2500 0.0000
v -0.5433 -0.2750 0.0000
v -0.5250 -0.2933 0.0000
v -0.5000 -0.3000 0.0000
v -0.4750 -0.2933 0.0000
v -0.4567 -0.2750 0.0000
v -0.4500 -0.2500 0.4000
v -0.4567 -0.2250 0.4000
v -0.4750 -0.2067 0.4000
v -0.5000 -0.2000 0.4000
v -0.5250 -0.2067 0.4000
v -0.5433 -0.2250 0.4000
v -0.5500 -0.2500 0.4000
v -0.5433 -0.2750 0.4000
v -0.5250 -0.2933 0.4000
v -0.5000 -0.3000 0.4000
v -0.4750 -0.2933 0.4000
v -0.4567 -0.2750 0.4000
v -0.5000 -0.2500 0.0000
v -0.5000 -0.2500 0.4000
v 4.9200 -0.3500 -0.5900
v 4.8503 -0.0900 -0.5900
v 4.6600 0.1003 -0.5900
v 4.4000 0.1700 -0.5900
v 4.1400 0.1003 -0.5900
v 3.9497 -0.0900 -0.5900
v 3.8800 -0.3500 -0.5900
v 3.9497 -0.6100 -0.5900
v 4.1400 -0.8003 -0.5900
v 4.4000 -0.8700 -0.5900
v 4.6600 -0.8003 -0.5900
v 4.8503 -0.6100 -0.5900
v 4.9200 -0.3500 -0.3100
v 4.8503 -0.0900 -0.3100
v 4.6600 0.1003 -0.3100
v 4.4000 0.1700 -0.3100
v 4.1400 0.1003 -0.3100
v 3.9497 -0.0900 -0.3100
v 3.8800 -0.3500 -0.3100
v 3.9497 -0.6100 -0.3100
v 4.1400 -0.8003 -0.3100
v 4.4000 -0.8700 -0.3100
v 4.6600 -0.8003 -0.3100
v 4.8503 -0.6100 -0.3100
v 4.4000 -0.3500 -0.5900
v 4.4000 -0.3500 -0.3100
usemtl chassis_dark
f 1 2 3 4
f 5 8 7 6
f 1 5 6 2
f 2 6 7 3
f 3 7 8 4
f 4 8 5 1
f 9 10 11 12
f 13 16 15 14
f 9 13 14 10
f 10 14 15 11
f 11 15 16 12
f 12 16 13 9
f 17 18 19 20
f 21 24 23 22
f 17 21 22 18
f 18 22 23 19
f 19 23 24 20
f 20 24 21 17
f 25 26 27 28
f 29 32 31 30
f 25 29 30 26
f 26 30 31 27
f 27 31 32 28
f 28 32 29 25
f 33 34 35 36
f 37 40 39 38
f 33 37 38 34
f 34 38 39 35
f 35 39 40 36
f 36 40 37 33
f 41 42 43 44
f 45 48 47 46
f 41 45 46 42
f 42 46 47 43
f 43 47 48 44
f 44 48 45 41
f 49 50 51 52
f 53 56 55 54
f 49 53 54 50
f 50 54 55 51
f 51 55 56 52
f 52 56 53 49
f 57 58 59 60
f 61 64 63 62
f 57 61 62 58
f 58 62 63 59
f 59 63 64 60
f 60 64 61 57
f 65 66 67 68
f 69 72 71 70
f 65 69 70 66
f 66 70 71 67
f 67 71 72 68
f 68 72 69 65
f 73 74 75 76
f 77 80 79 78
f 73 77 78 74
f 74 78 79 75
f 75 79 80 76
f 76 80 77 73
usemtl accent_green
f 81 82 83 84
f 85 88 87 86
f 81 85 86 82
f 82 86 87 83
f 83 87 88 84
f 84 88 85 81
f 89 90 91 92
f 93 96 95 94
f 89 93 94 90
f 90 94 95 91
f 91 95 96 92
f 92 96 93 89
usemtl axle_metal
f 97 98 99 100
f 101 104 103 102
f 97 101 102 98
f 98 102 103 99
f 99 103 104 100
f 100 104 101 97
f 105 106 107 108
f 109 112 111 110
f 105 109 110 106
f 106 110 111 107
f 107 111 112 108
f 108 112 109 105
f 113 114 126 125
f 114 115 127 126
f 115 116 128 127
f 116 117 129 128
f 117 118 130 129
f 118 119 131 130
f 119 120 132 131
f 120 121 133 132
f 121 122 134 133
f 122 123 135 134
f 123 124 136 135
f 124 113 125 136
f 137 114 113
f 137 115 114
f 137 116 115
f 137 117 116
f 137 118 117
f 137 119 118
f 137 120 119
f 137 121 120
f 137 122 121
f 137 123 122
f 137 124 123
f 137 113 124
f 138 125 126
f 138 126 127
f 138 127 128
f 138 128 129
f 138 129 130
f 138 130 131
f 138 131 132
f 138 132 133
f 138 133 134
f 138 134 135
f 138 135 136
f 138 136 125
f 139 140 152 151
f 140 141 153 152
f 141 142 154 153
f 142 143 155 154
f 143 144 156 155
f 144 145 157 156
f 145 146 158 157
f 146 147 159 158
f 147 148 160 159
f 148 149 161 160
f 149 150 162 161
f 150 139 151 162
f 163 140 139
f 163 141 140
f 163 142 141
f 163 143 142
f 163 144 143
f 163 145 144
f 163 146 145
f 163 147 146
f 163 148 147
f 163 149 148
f 163 150 149
f 163 139 150
f 164 151 152
f 164 152 153
f 164 153 154
f 164 154 155
f 164 155 156
f 164 156 157
f 164 157 158
f 164 158 159
f 164 159 160
f 164 160 161
f 164 161 162
f 164 162 151
f 165 166 178 177
f 166 167 179 178
f 167 168 180 179
f 168 169 181 180
f 169 170 182 181
f 170 171 183 182
f 171 172 184 183
f 172 173 185 184
f 173 174 186 185
f 174 175 187 186
f 175 176 188 187
f 176 165 177 188
f 189 166 165
f 189 167 166
f 189 168 167
f 189 169 168
f 189 170 169
f 189 171 170
f 189 172 171
f 189 173 172
f 189 174 173
f 189 175 174
f 189 176 175
f 189 165 176
f 190 177 178
f 190 178 179
f 190 179 180
f 190 180 181
f 190 181 182
f 190 182 183
f 190 183 184
f 190 184 185
f 190 185 186
f 190 186 187
f 190 187 188
f 190 188 177
usemtl chassis_dark
f 191 192 193 194
f 195 198 197 196
f 191 195 196 192
f 192 196 197 193
f 193 197 198 194
f 194 198 195 191
f 199 200 201 202
f 203 206 205 204
f 199 203 204 200
f 200 204 205 201
f 201 205 206 202
f 202 206 203 199
f 207 208 209 210
f 211 214 213 212
f 207 211 212 208
f 208 212 213 209
f 209 213 214 210
f 210 214 211 207
f 215 216 217 218
f 219 222 221 220
f 215 219 220 216
f 216 220 221 217
f 217 221 222 218
f 218 222 219 215
usemtl axle_metal
f 223 224 236 235
f 224 225 237 236
f 225 226 238 237
f 226 227 239 238
f 227 228 240 239
f 228 229 241 240
f 229 230 242 241
f 230 231 243 242
f 231 232 244 243
f 232 233 245 244
f 233 234 246 245
f 234 223 235 246
f 247 224 223
f 247 225 224
f 247 226 225
f 247 227 226
f 247 228 227
f 247 229 228
f 247 230 229
f 247 231 230
f 247 232 231
f 247 233 232
f 247 234 233
f 247 223 234
f 248 235 236
f 248 236 237
f 248 237 238
f 248 238 239
f 248 239 240
f 248 240 241
f 248 241 242
f 248 242 243
f 248 243 244
f 248 244 245
f 248 245 246
f 248 246 235
f 249 250 262 261
f 250 251 263 262
f 251 252 264 263
f 252 253 265 264
f 253 254 266 265
f 254 255 267 266
f 255 256 268 267
f 256 257 269 268
f 257 258 270 269
f 258 259 271 270
f 259 260 272 271
f 260 249 261 272
f 273 250 249
f 273 251 250
f 273 252 251
f 273 253 252
f 273 254 253
f 273 255 254
f 273 256 255
f 273 257 256
f 273 258 257
f 273 259 258
f 273 260 259
f 273 249 260
f 274 261 262
f 274 262 263
f 274 263 264
f 274 264 265
f 274 265 266
f 274 266 267
f 274 267 268
f 274 268 269
f 274 269 270
f 274 270 271
f 274 271 272
f 274 272 261
f 275 276 277 278
f 279 282 281 280
f 275 279 280 276
f 276 280 281 277
f 277 281 282 278
f 278 282 279 275
f 283 284 285 286
f 287 290 289 288
f 283 287 288 284
f 284 288 289 285
f 285 289 290 286
f 286 290 287 283
usemtl rubber_tire
f 291 292 304 303
f 292 293 305 304
f 293 294 306 305
f 294 295 307 306
f 295 296 308 307
f 296 297 309 308
f 297 298 310 309
f 298 299 311 310
f 299 300 312 311
f 300 301 313 312
f 301 302 314 313
f 302 291 303 314
f 315 292 291
f 315 293 292
f 315 294 293
f 315 295 294
f 315 296 295
f 315 297 296
f 315 298 297
f 315 299 298
f 315 300 299
f 315 301 300
f 315 302 301
f 315 291 302
f 316 303 304
f 316 304 305
f 316 305 306
f 316 306 307
f 316 307 308
f 316 308 309
f 316 309 310
f 316 310 311
f 316 311 312
f 316 312 313
f 316 313 314
f 316 314 303
f 317 318 330 329
f 318 319 331 330
f 319 320 332 331
f 320 321 333 332
f 321 322 334 333
f 322 323 335 334
f 323 324 336 335
f 324 325 337 336
f 325 326 338 337
f 326 327 339 338
f 327 328 340 339
f 328 317 329 340
f 341 318 317
f 341 319 318
f 341 320 319
f 341 321 320
f 341 322 321
f 341 323 322
f 341 324 323
f 341 325 324
f 341 326 325
f 341 327 326
f 341 328 327
f 341 317 328
f 342 329 330
f 342 330 331
f 342 331 332
f 342 332 333
f 342 333 334
f 342 334 335
f 342 335 336
f 342 336 337
f 342 337 338
f 342 338 339
f 342 339 340
f 342 340 329
f 343 344 356 355
f 344 345 357 356
f 345 346 358 357
f 346 347 359 358
f 347 348 360 359
f 348 349 361 360
f 349 350 362 361
f 350 351 363 362
f 351 352 364 363
f 352 353 365 364
f 353 354 366 365
f 354 343 355 366
f 367 344 343
f 367 345 344
f 367 346 345
f 367 347 346
f 367 348 347
f 367 349 348
f 367 350 349
f 367 351 350
f 367 352 351
f 367 353 352
f 367 354 353
f 367 343 354
f 368 355 356
f 368 356 357
f 368 357 358
f 368 358 359
f 368 359 360
f 368 360 361
f 368 361 362
f 368 362 363
f 368 363 364
f 368 364 365
f 368 365 366
f 368 366 355
f 369 370 382 381
f 370 371 383 382
f 371 372 384 383
f 372 373 385 384
f 373 374 386 385
f 374 375 387 386
f 375 376 388 387
f 376 377 389 388
f 377 378 390 389
f 378 379 391 390
f 379 380 392 391
f 380 369 381 392
f 393 370 369
f 393 371 370
f 393 372 371
f 393 373 372
f 393 374 373
f 393 375 374
f 393 376 375
f 393 377 376
f 393 378 377
f 393 379 378
f 393 380 379
f 393 369 380
f 394 381 382
f 394 382 383
f 394 383 384
f 394 384 385
f 394 385 386
f 394 386 387
f 394 387 388
f 394 388 389
f 394 389 390
f 394 390 391
f 394 391 392
f 394 392 381
f 395 396 408 407
f 396 397 409 408
f 397 398 410 409
f 398 399 411 410
f 399 400 412 411
f 400 401 413 412
f 401 402 414 413
f 402 403 415 414
f 403 404 416 415
f 404 405 417 416
f 405 406 418 417
f 406 395 407 418
f 419 396 395
f 419 397 396
f 419 398 397
f 419 399 398
f 419 400 399
f 419 401 400
f 419 402 401
f 419 403 402
f 419 404 403
f 419 405 404
f 419 406 405
f 419 395 406
f 420 407 408
f 420 408 409
f 420 409 410
f 420 410 411
f 420 411 412
f 420 412 413
f 420 413 414
f 420 414 415
f 420 415 416
f 420 416 417
f 420 417 418
f 420 418 407
f 421 422 434 433
f 422 423 435 434
f 423 424 436 435
f 424 425 437 436
f 425 426 438 437
f 426 427 439 438
f 427 428 440 439
f 428 429 441 440
f 429 430 442 441
f 430 431 443 442
f 431 432 444 443
f 432 421 433 444
f 445 422 421
f 445 423 422
f 445 424 423
f 445 425 424
f 445 426 425
f 445 427 426
f 445 428 427
f 445 429 428
f 445 430 429
f 445 431 430
f 445 432 431
f 445 421 432
f 446 433 434
f 446 434 435
f 446 435 436
f 446 436 437
f 446 437 438
f 446 438 439
f 446 439 440
f 446 440 441
f 446 441 442
f 446 442 443
f 446 443 444
f 446 444 433
f 447 448 460 459
f 448 449 461 460
f 449 450 462 461
f 450 451 463 462
f 451 452 464 463
f 452 453 465 464
f 453 454 466 465
f 454 455 467 466
f 455 456 468 467
f 456 457 469 468
f 457 458 470 469
f 458 447 459 470
f 471 448 447
f 471 449 448
f 471 450 449
f 471 451 450
f 471 452 451
f 471 453 452
f 471 454 453
f 471 455 454
f 471 456 455
f 471 457 456
f 471 458 457
f 471 447 458
f 472 459 460
f 472 460 461
f 472 461 462
f 472 462 463
f 472 463 464
f 472 464 465
f 472 465 466
f 472 466 467
f 472 467 468
f 472 468 469
f 472 469 470
f 472 470 459
f 473 474 486 485
f 474 475 487 486
f 475 476 488 487
f 476 477 489 488
f 477 478 490 489
f 478 479 491 490
f 479 480 492 491
f 480 481 493 492
f 481 482 494 493
f 482 483 495 494
f 483 484 496 495
f 484 473 485 496
f 497 474 473
f 497 475 474
f 497 476 475
f 497 477 476
f 497 478 477
f 497 479 478
f 497 480 479
f 497 481 480
f 497 482 481
f 497 483 482
f 497 484 483
f 497 473 484
f 498 485 486
f 498 486 487
f 498 487 488
f 498 488 489
f 498 489 490
f 498 490 491
f 498 491 492
f 498 492 493
f 498 493 494
f 498 494 495
f 498 495 496
f 498 496 485
f 499 500 512 511
f 500 501 513 512
f 501 502 514 513
f 502 503 515 514
f 503 504 516 515
f 504 505 517 516
f 505 506 518 517
f 506 507 519 518
f 507 508 520 519
f 508 509 521 520
f 509 510 522 521
f 510 499 511 522
f 523 500 499
f 523 501 500
f 523 502 501
f 523 503 502
f 523 504 503
f 523 505 504
f 523 506 505
f 523 507 506
f 523 508 507
f 523 509 508
f 523 510 509
f 523 499 510
f 524 511 512
f 524 512 513
f 524 513 514
f 524 514 515
f 524 515 516
f 524 516 517
f 524 517 518
f 524 518 519
f 524 519 520
f 524 520 521
f 524 521 522
f 524 522 511
f 525 526 538 537
f 526 527 539 538
f 527 528 540 539
f 528 529 541 540
f 529 530 542 541
f 530 531 543 542
f 531 532 544 543
f 532 533 545 544
f 533 534 546 545
f 534 535 547 546
f 535 536 548 547
f 536 525 537 548
f 549 526 525
f 549 527 526
f 549 528 527
f 549 529 528
f 549 530 529
f 549 531 530
f 549 532 531
f 549 533 532
f 549 534 533
f 549 535 534
f 549 536 535
f 549 525 536
f 550 537 538
f 550 538 539
f 550 539 540
f 550 540 541
f 550 541 542
f 550 542 543
f 550 543 544
f 550 544 545
f 550 545 546
f 550 546 547
f 550 547 548
f 550 548 537
usemtl chassis_dark
f 551 552 553 554
f 555 558 557 556
f 551 555 556 552
f 552 556 557 553
f 553 557 558 554
f 554 558 555 551
f 559 560 561 562
f 563 566 565 564
f 559 563 564 560
f 560 564 565 561
f 561 565 566 562
f 562 566 563 559
usemtl cab_paint
f 567 568 569 570
f 571 574 573 572
f 567 571 572 568
f 568 572 573 569
f 569 573 574 570
f 570 574 571 567
f 575 576 577 578
f 579 582 581 580
f 575 579 580 576
f 576 580 581 577
f 577 581 582 578
f 578 582 579 575
f 583 584 585 586
f 587 590 589 588
f 583 587 588 584
f 584 588 589 585
f 585 589 590 586
f 586 590 587 583
usemtl chassis_dark
f 591 592 593 594
f 595 598 597 596
f 591 595 596 592
f 592 596 597 593
f 593 597 598 594
f 594 598 595 591
f 599 600 601 602
f 603 606 605 604
f 599 603 604 600
f 600 604 605 601
f 601 605 606 602
f 602 606 603 599
f 607 608 609 610
f 611 614 613 612
f 607 611 612 608
f 608 612 613 609
f 609 613 614 610
f 610 614 611 607
f 615 616 617 618
f 619 622 621 620
f 615 619 620 616
f 616 620 621 617
f 617 621 622 618
f 618 622 619 615
usemtl tank_silver
f 623 624 625 626
f 627 630 629 628
f 623 627 628 624
f 624 628 629 625
f 625 629 630 626
f 626 630 627 623
f 631 632 633 634
f 635 638 637 636
f 631 635 636 632
f 632 636 637 633
f 633 637 638 634
f 634 638 635 631
usemtl accent_magenta
f 639 640 641 642
f 643 646 645 644
f 639 643 644 640
f 640 644 645 641
f 641 645 646 642
f 642 646 643 639
f 647 648 649 650
f 651 654 653 652
f 647 651 652 648
f 648 652 653 649
f 649 653 654 650
f 650 654 651 647
usemtl windshield
f 655 656 657 658
f 659 662 661 660
f 655 659 660 656
f 656 660 661 657
f 657 661 662 658
f 658 662 659 655
f 663 664 665 666
f 667 670 669 668
f 663 667 668 664
f 664 668 669 665
f 665 669 670 666
f 666 670 667 663
f 671 672 673 674
f 675 678 677 676
f 671 675 676 672
f 672 676 677 673
f 673 677 678 674
f 674 678 675 671
usemtl tank_silver
f 679 680 681 682
f 683 686 685 684
f 679 683 684 680
f 680 684 685 681
f 681 685 686 682
f 682 686 683 679
f 687 688 689 690
f 691 694 693 692
f 687 691 692 688
f 688 692 693 689
f 689 693 694 690
f 690 694 691 687
usemtl chassis_dark
f 695 696 697 698
f 699 702 701 700
f 695 699 700 696
f 696 700 701 697
f 697 701 702 698
f 698 702 699 695
usemtl tank_silver
f 703 704 716 715
f 704 705 717 716
f 705 706 718 717
f 706 707 719 718
f 707 708 720 719
f 708 709 721 720
f 709 710 722 721
f 710 711 723 722
f 711 712 724 723
f 712 713 725 724
f 713 714 726 725
f 714 703 715 726
f 727 704 703
f 727 705 704
f 727 706 705
f 727 707 706
f 727 708 707
f 727 709 708
f 727 710 709
f 727 711 710
f 727 712 711
f 727 713 712
f 727 714 713
f 727 703 714
f 728 715 716
f 728 716 717
f 728 717 718
f 728 718 719
f 728 719 720
f 728 720 721
f 728 721 722
f 728 722 723
f 728 723 724
f 728 724 725
f 728 725 726
f 728 726 715
f 729 730 742 741
f 730 731 743 742
f 731 732 744 743
f 732 733 745 744
f 733 734 746 745
f 734 735 747 746
f 735 736 748 747
f 736 737 749 748
f 737 738 750 749
f 738 739 751 750
f 739 740 752 751
f 740 729 741 752
f 753 730 729
f 753 731 730
f 753 732 731
f 753 733 732
f 753 734 733
f 753 735 734
f 753 736 735
f 753 737 736
f 753 738 737
f 753 739 738
f 753 740 739
f 753 729 740
f 754 741 742
f 754 742 743
f 754 743 744
f 754 744 745
f 754 745 746
f 754 746 747
f 754 747 748
f 754 748 749
f 754 749 750
f 754 750 751
f 754 751 752
f 754 752 741
f 755 756 768 767
f 756 757 769 768
f 757 758 770 769
f 758 759 771 770
f 759 760 772 771
f 760 761 773 772
f 761 762 774 773
f 762 763 775 774
f 763 764 776 775
f 764 765 777 776
f 765 766 778 777
f 766 755 767 778
f 779 756 755
f 779 757 756
f 779 758 757
f 779 759 758
f 779 760 759
f 779 761 760
f 779 762 761
f 779 763 762
f 779 764 763
f 779 765 764
f 779 766 765
f 779 755 766
f 780 767 768
f 780 768 769
f 780 769 770
f 780 770 771
f 780 771 772
f 780 772 773
f 780 773 774
f 780 774 775
f 780 775 776
f 780 776 777
f 780 777 778
f 780 778 767
f 781 782 794 793
f 782 783 795 794
f 783 784 796 795
f 784 785 797 796
f 785 786 798 797
f 786 787 799 798
f 787 788 800 799
f 788 789 801 800
f 789 790 802 801
f 790 791 803 802
f 791 792 804 803
f 792 781 793 804
f 805 782 781
f 805 783 782
f 805 784 783
f 805 785 784
f 805 786 785
f 805 787 786
f 805 788 787
f 805 789 788
f 805 790 789
f 805 791 790
f 805 792 791
f 805 781 792
f 806 793 794
f 806 794 795
f 806 795 796
f 806 796 797
f 806 797 798
f 806 798 799
f 806 799 800
f 806 800 801
f 806 801 802
f 806 802 803
f 806 803 804
f 806 804 793
usemtl rubber_tire
f 807 808 820 819
f 808 809 821 820
f 809 810 822 821
f 810 811 823 822
f 811 812 824 823
f 812 813 825 824
f 813 814 826 825
f 814 815 827 826
f 815 816 828 827
f 816 817 829 828
f 817 818 830 829
f 818 807 819 830
f 831 808 807
f 831 809 808
f 831 810 809
f 831 811 810
f 831 812 811
f 831 813 812
f 831 814 813
f 831 815 814
f 831 816 815
f 831 817 816
f 831 818 817
f 831 807 818
f 832 819 820
f 832 820 821
f 832 821 822
f 832 822 823
f 832 823 824
f 832 824 825
f 832 825 826
f 832 826 827
f 832 827 828
f 832 828 829
f 832 829 830
f 832 830 819
